<?xml version="1.0" encoding="UTF-8"?> <svg xmlns="http://www.w3.org/2000/svg" width="654.688" height="272" viewBox="0 0 654.688 272"><defs><style> .cls-1 { fill: #fff; } .cls-1, .cls-2 { fill-rule: evenodd; } .cls-2 { fill: #1d75bd; } </style></defs><path id="vess" class="cls-1" d="M69.375,108.548V80.27L157,30.165,244.619,80.27V91.506L271,76.344V65.187L157,0,43,65.187v58.521M244.62,152.222v39.519L157,241.839l-87.622-50.1v0.009L43,206.911v-0.09L157,272l114-65.183V137.064m15.581-45.478,25.75,96.2q1.236,4.533,5.562,4.532h26.162q4.736,0,5.562-4.532l25.956-96.2q1.236-4.326-3.09-4.326H354.351q-4.326,0-5.15,4.326l-17.3,77.456h-1.442L312.739,91.586q-0.826-4.326-4.944-4.326H289.667q-4.326,0-3.09,4.326h0Zm184.882,99.807a4.432,4.432,0,0,0,.927-3.193V174.6q0-4.529-4.326-4.532H426.448q-6.6,0-9.373-2.781t-2.781-9.167v-4.532q0-2.265,2.472-2.266h51.706q4.326,0,4.326-4.326V120.838q0-16.27-8.858-24.926T438.808,87.26H422.534q-16.275,0-25.132,8.652t-8.858,24.926v37.9q0,16.275,8.858,24.926t25.132,8.652H468.06A4.794,4.794,0,0,0,471.459,191.393ZM414.5,131.55v-9.888q0-6.591,2.678-9.27t9.27-2.678H435.1q6.591,0,9.27,2.678t2.678,9.27v9.888a2,2,0,0,1-2.266,2.266H416.766a2,2,0,0,1-2.266-2.266h0Zm149.966,33.166q0-9.888-4.326-15.965T545.1,136.906L524.3,124.546q-8.861-4.737-8.858-9.27v-1.03q0-5.146,10.094-5.15h28.634q2.472,0,3.3-.927a4.828,4.828,0,0,0,.824-3.193V91.586q0-4.326-4.12-4.326h-34.4q-16.276,0-23.9,6.8t-7.622,21.218q0,9.686,4.944,15.862t15.45,11.536L529.034,154q8.443,4.533,8.446,9.476v1.03q0,6.18-10.094,6.18h-34.4q-2.472,0-3.3.927a4.811,4.811,0,0,0-.824,3.193v13.184q0,4.326,4.12,4.326h39.14q32.338,0,32.342-27.6h0Zm90.225,0q0-9.888-4.326-15.965t-15.038-11.845l-20.806-12.36q-8.859-4.737-8.858-9.27v-1.03q0-5.146,10.094-5.15h28.634q2.472,0,3.3-.927a4.823,4.823,0,0,0,.824-3.193V91.586q0-4.326-4.12-4.326h-34.4q-16.275,0-23.9,6.8t-7.622,21.218q0,9.686,4.944,15.862t15.45,11.536L619.259,154q8.445,4.533,8.446,9.476v1.03q0,6.18-10.094,6.18h-34.4q-2.472,0-3.3.927a4.817,4.817,0,0,0-.824,3.193v13.184q0,4.326,4.12,4.326h39.14q32.34,0,32.342-27.6h0Z"></path><path id="i" class="cls-2" d="M69.375,178.343V155.55l38.463-22.108,31.912,18.344,28.97-16.651-31.913-18.344L107.838,100.14,78.867,116.791l-9.492,5.456L43,137.409v56.019m201.62-88.222-63.981,36.78-28.967,16.651,28.967,16.652,28.971-16.652,35.01-20.127L271,123.349V90.044Zm-240.5,7.5H22.039q4.118,0,4.12-4.12V90.461q0-3.911-4.12-3.914H4.117q-4.123,0-4.12,4.12v17.922q0,4.123,4.12,4.12h0Zm0.206,78.656H22.039a4.812,4.812,0,0,0,3.193-.824q0.927-.82.927-3.5V130.631q0-4.326-4.326-4.326H4.117q-4.123,0-4.12,4.326v56.408q0,4.326,4.326,4.326h0Z"></path></svg> 